<svg xmlns="http://www.w3.org/2000/svg" version="1.1" xmlns:xlink="http://www.w3.org/1999/xlink" width="38" height="38"><svg width="38" height="38" viewBox="0 0 38 38" fill="none" xmlns="http://www.w3.org/2000/svg">
<path d="M17.1131 30.9244C15.7301 32.3081 13.914 33 12.0979 33C10.2818 33 8.46564 32.3081 7.08271 30.9244C5.74145 29.5823 5.00833 27.7985 5.00833 25.9062C5.00833 24.014 5.74145 22.2301 7.08271 20.8881C7.94912 20.0211 9.34037 20.0211 10.2068 20.8881C11.0732 21.755 11.0732 23.1471 10.2068 24.014C9.70693 24.5141 9.42368 25.1893 9.42368 25.9062C9.42368 26.6231 9.6986 27.2983 10.2068 27.7985C11.2481 28.8404 12.9476 28.8404 13.989 27.7985C14.8554 26.9315 16.2467 26.9315 17.1131 27.7985C17.9795 28.6654 17.9795 30.0575 17.1131 30.9244ZM17.1131 10.2015C16.2467 11.0685 14.8554 11.0685 13.989 10.2015C12.9476 9.15957 11.2481 9.15957 10.2068 10.2015C9.70693 10.7017 9.42368 11.3769 9.42368 12.0938C9.42368 12.8107 9.6986 13.4859 10.2068 13.986C11.0732 14.8529 11.0732 16.245 10.2068 17.1119C9.77358 17.5454 9.20708 17.7621 8.64891 17.7621C8.09075 17.7621 7.51592 17.5454 7.09104 17.1119C5.74145 15.7699 5 13.986 5 12.0938C5 10.2015 5.74145 8.40935 7.08271 7.07562C9.84856 4.30813 14.3472 4.30813 17.1131 7.07562C17.9795 7.94254 17.9795 9.33462 17.1131 10.2015ZM30.9256 30.9244C29.5427 32.3081 27.7266 33 25.9104 33C24.0943 33 22.2782 32.3081 20.8953 30.9244C20.0289 30.0575 20.0289 28.6654 20.8953 27.7985C21.7617 26.9315 23.1529 26.9315 24.0193 27.7985C25.0607 28.8404 26.7602 28.8404 27.8015 27.7985C28.8429 26.7565 28.8429 25.056 27.8015 24.014C26.9351 23.1471 26.9351 21.755 27.8015 20.8881C28.668 20.0211 30.0592 20.0211 30.9256 20.8881C33.6915 23.6556 33.6915 28.1569 30.9256 30.916V30.9244ZM30.9256 17.1119C30.4924 17.5454 29.9259 17.7621 29.3677 17.7621C28.8096 17.7621 28.2347 17.5454 27.8099 17.1119C26.9435 16.245 26.9435 14.8529 27.8099 13.986C28.8512 12.944 28.8512 11.2435 27.8099 10.2015C26.7685 9.15957 25.069 9.15957 24.0277 10.2015C23.1613 11.0685 21.77 11.0685 20.9036 10.2015C20.0372 9.33462 20.0372 7.94254 20.9036 7.07562C23.6694 4.30813 28.1681 4.30813 30.9256 7.07562C33.6915 9.84311 33.6915 14.3444 30.9256 17.1036V17.1119Z" fill="black"></path>
</svg><style>@media (prefers-color-scheme: light) { :root { filter: none; } }
@media (prefers-color-scheme: dark) { :root { filter: invert(100%); } }
</style></svg>