<svg viewBox="0 0 206 36" fill="none" xmlns="http://www.w3.org/2000/svg">
<path d="M12.1131 29.9244C10.7301 31.3081 8.91401 32 7.09789 32C5.28176 32 3.46564 31.3081 2.08271 29.9244C0.741446 28.5823 0.00833085 26.7985 0.00833085 24.9062C0.00833085 23.014 0.741446 21.2301 2.08271 19.8881C2.94912 19.0211 4.34037 19.0211 5.20678 19.8881C6.07319 20.755 6.07319 22.1471 5.20678 23.014C4.70693 23.5141 4.42368 24.1893 4.42368 24.9062C4.42368 25.6231 4.6986 26.2983 5.20678 26.7985C6.24814 27.8404 7.94763 27.8404 8.98899 26.7985C9.8554 25.9315 11.2467 25.9315 12.1131 26.7985C12.9795 27.6654 12.9795 29.0575 12.1131 29.9244ZM12.1131 9.20155C11.2467 10.0685 9.8554 10.0685 8.98899 9.20155C7.94763 8.15957 6.24814 8.15957 5.20678 9.20155C4.70693 9.7017 4.42368 10.3769 4.42368 11.0938C4.42368 11.8107 4.6986 12.4859 5.20678 12.986C6.07319 13.8529 6.07319 15.245 5.20678 16.1119C4.77358 16.5454 4.20708 16.7621 3.64891 16.7621C3.09075 16.7621 2.51592 16.5454 2.09104 16.1119C0.741446 14.7699 0 12.986 0 11.0938C0 9.20155 0.741446 7.40935 2.08271 6.07562C4.84856 3.30813 9.34722 3.30813 12.1131 6.07562C12.9795 6.94254 12.9795 8.33462 12.1131 9.20155ZM25.9256 29.9244C24.5427 31.3081 22.7266 32 20.9104 32C19.0943 32 17.2782 31.3081 15.8953 29.9244C15.0289 29.0575 15.0289 27.6654 15.8953 26.7985C16.7617 25.9315 18.1529 25.9315 19.0193 26.7985C20.0607 27.8404 21.7602 27.8404 22.8015 26.7985C23.8429 25.7565 23.8429 24.056 22.8015 23.014C21.9351 22.1471 21.9351 20.755 22.8015 19.8881C23.668 19.0211 25.0592 19.0211 25.9256 19.8881C28.6915 22.6556 28.6915 27.1569 25.9256 29.916V29.9244ZM25.9256 16.1119C25.4924 16.5454 24.9259 16.7621 24.3677 16.7621C23.8096 16.7621 23.2347 16.5454 22.8099 16.1119C21.9435 15.245 21.9435 13.8529 22.8099 12.986C23.8512 11.944 23.8512 10.2435 22.8099 9.20155C21.7685 8.15957 20.069 8.15957 19.0277 9.20155C18.1613 10.0685 16.77 10.0685 15.9036 9.20155C15.0372 8.33462 15.0372 6.94254 15.9036 6.07562C18.6694 3.30813 23.1681 3.30813 25.9256 6.07562C28.6915 8.84311 28.6915 13.3444 25.9256 16.1036V16.1119Z" fill="black"/>
<path d="M53.848 22.344C54.016 22.344 54.128 22.428 54.044 22.624L53.652 23.52C52.196 26.824 49.732 28.28 46.764 28.28C42.34 28.28 38.756 24.976 38.756 18.76C38.756 13.132 42.312 8.512 47.156 8.512C48.024 8.512 48.808 8.624 49.536 8.876C49.788 8.96 49.928 8.96 50.124 8.876L50.74 8.624C50.88 8.568 51.02 8.512 51.328 8.512H52.028C52.196 8.512 52.308 8.568 52.336 8.764L52.896 14.112C52.924 14.364 52.812 14.42 52.616 14.42H51.384C51.244 14.42 51.16 14.364 51.104 14.14L50.628 11.816C50.516 11.284 50.432 11.088 50.152 10.92C49.424 10.528 48.724 10.332 47.744 10.332C44.412 10.332 41.78 13.188 41.78 18.088C41.78 23.156 44.468 25.452 47.464 25.452C49.564 25.452 50.88 24.528 51.692 23.128L52 22.596C52.14 22.372 52.252 22.344 52.448 22.344H53.848ZM63.0211 28.28C58.4571 28.28 55.5731 24.5 55.5731 18.536C55.5731 12.572 58.7371 8.512 63.3851 8.512C67.8651 8.512 70.8051 12.488 70.8051 18.312C70.8051 24.136 67.6691 28.28 63.0211 28.28ZM63.3851 26.32C65.9891 26.32 67.6691 23.66 67.6691 18.928C67.6691 13.804 65.7651 10.472 62.9931 10.472C60.3891 10.472 58.7091 13.384 58.7091 17.92C58.7091 22.764 60.5291 26.32 63.3851 26.32ZM85.6621 25.256C85.6621 25.592 85.7461 25.704 85.9701 25.9L86.3621 26.236C86.6141 26.432 86.7261 26.488 87.0901 26.488H87.3701C87.5381 26.488 87.6221 26.572 87.6221 26.74V27.748C87.6221 27.916 87.5381 28 87.3701 28H81.1821C81.0141 28 80.9301 27.916 80.9301 27.748V26.74C80.9301 26.572 81.0141 26.488 81.1821 26.488H81.6861C82.0221 26.488 82.1621 26.404 82.3861 26.18L82.7221 25.872C83.0021 25.592 83.0301 25.48 83.0301 25.088L82.6381 13.468C82.6381 13.244 82.4141 13.188 82.3301 13.468L80.0061 21.42C79.8941 21.756 79.7821 21.784 79.5021 21.784H78.9701C78.7181 21.784 78.5781 21.7 78.4941 21.392L76.6461 13.524C76.5901 13.328 76.3381 13.328 76.3381 13.552L76.0021 25.06C76.0021 25.452 76.0301 25.592 76.2261 25.788L76.7021 26.236C76.9261 26.46 77.0381 26.488 77.3741 26.488H77.9341C78.1021 26.488 78.1861 26.572 78.1861 26.74V27.748C78.1861 27.916 78.1021 28 77.9341 28H72.5861C72.4181 28 72.3341 27.916 72.3341 27.748V26.74C72.3341 26.572 72.4181 26.488 72.5861 26.488H72.8941C73.2581 26.488 73.3701 26.432 73.6501 26.208L74.0421 25.872C74.2661 25.676 74.3221 25.564 74.3221 25.256L74.7141 11.816C74.7141 11.368 74.7141 11.172 74.4621 10.948L74.0701 10.584C73.8181 10.332 73.7061 10.304 73.3701 10.304H72.9501C72.7821 10.304 72.6981 10.22 72.6981 10.052V9.044C72.6981 8.876 72.7821 8.792 72.9501 8.792H77.3461C77.6541 8.792 77.7661 8.876 77.8221 9.156L79.6421 16.688C79.6981 16.884 79.8941 16.884 79.9501 16.688L82.1621 9.1C82.2461 8.848 82.3581 8.792 82.6381 8.792H86.9501C87.1181 8.792 87.2021 8.876 87.2021 9.044V10.052C87.2021 10.22 87.1181 10.304 86.9501 10.304H86.5301C86.1941 10.304 86.0821 10.332 85.8581 10.556L85.4661 10.948C85.2141 11.2 85.2141 11.312 85.2141 11.704L85.6621 25.256ZM102.451 25.256C102.451 25.592 102.535 25.704 102.759 25.9L103.151 26.236C103.403 26.432 103.515 26.488 103.879 26.488H104.159C104.327 26.488 104.411 26.572 104.411 26.74V27.748C104.411 27.916 104.327 28 104.159 28H97.9712C97.8032 28 97.7192 27.916 97.7192 27.748V26.74C97.7192 26.572 97.8032 26.488 97.9712 26.488H98.4752C98.8112 26.488 98.9512 26.404 99.1752 26.18L99.5112 25.872C99.7912 25.592 99.8192 25.48 99.8192 25.088L99.4272 13.468C99.4272 13.244 99.2032 13.188 99.1192 13.468L96.7952 21.42C96.6832 21.756 96.5712 21.784 96.2912 21.784H95.7592C95.5072 21.784 95.3672 21.7 95.2832 21.392L93.4352 13.524C93.3792 13.328 93.1272 13.328 93.1272 13.552L92.7912 25.06C92.7912 25.452 92.8192 25.592 93.0152 25.788L93.4912 26.236C93.7152 26.46 93.8272 26.488 94.1632 26.488H94.7232C94.8912 26.488 94.9752 26.572 94.9752 26.74V27.748C94.9752 27.916 94.8912 28 94.7232 28H89.3752C89.2072 28 89.1232 27.916 89.1232 27.748V26.74C89.1232 26.572 89.2072 26.488 89.3752 26.488H89.6832C90.0472 26.488 90.1592 26.432 90.4392 26.208L90.8312 25.872C91.0552 25.676 91.1112 25.564 91.1112 25.256L91.5032 11.816C91.5032 11.368 91.5032 11.172 91.2512 10.948L90.8592 10.584C90.6072 10.332 90.4952 10.304 90.1592 10.304H89.7392C89.5712 10.304 89.4872 10.22 89.4872 10.052V9.044C89.4872 8.876 89.5712 8.792 89.7392 8.792H94.1352C94.4432 8.792 94.5552 8.876 94.6112 9.156L96.4312 16.688C96.4872 16.884 96.6832 16.884 96.7392 16.688L98.9512 9.1C99.0352 8.848 99.1472 8.792 99.4272 8.792H103.739C103.907 8.792 103.991 8.876 103.991 9.044V10.052C103.991 10.22 103.907 10.304 103.739 10.304H103.319C102.983 10.304 102.871 10.332 102.647 10.556L102.255 10.948C102.003 11.2 102.003 11.312 102.003 11.704L102.451 25.256ZM113.388 28.28C108.824 28.28 105.94 24.5 105.94 18.536C105.94 12.572 109.104 8.512 113.752 8.512C118.232 8.512 121.172 12.488 121.172 18.312C121.172 24.136 118.036 28.28 113.388 28.28ZM113.752 26.32C116.356 26.32 118.036 23.66 118.036 18.928C118.036 13.804 116.132 10.472 113.36 10.472C110.756 10.472 109.076 13.384 109.076 17.92C109.076 22.764 110.896 26.32 113.752 26.32ZM123.121 28C122.953 28 122.869 27.916 122.869 27.748V26.74C122.869 26.572 122.953 26.488 123.121 26.488H123.989C124.213 26.488 124.325 26.432 124.465 26.292L124.969 25.844C125.165 25.676 125.221 25.508 125.221 25.312V12.74C125.221 12.432 125.165 12.264 125.025 12.012L123.317 9.128C123.205 8.96 123.205 8.792 123.457 8.792H126.173C126.425 8.792 126.509 8.848 126.621 9.044L133.565 21.112C133.705 21.364 133.929 21.252 133.929 21.028V11.48C133.929 11.284 133.873 11.172 133.649 10.948L133.201 10.528C133.033 10.36 132.893 10.304 132.641 10.304H131.493C131.325 10.304 131.241 10.22 131.241 10.052V9.044C131.241 8.876 131.325 8.792 131.493 8.792H137.905C138.073 8.792 138.157 8.876 138.157 9.044V10.052C138.157 10.22 138.073 10.304 137.905 10.304H137.037C136.813 10.304 136.701 10.36 136.561 10.5L136.057 10.948C135.861 11.116 135.805 11.284 135.805 11.48V27.748C135.805 27.916 135.721 28 135.553 28H134.825C134.657 28 134.489 27.944 134.377 27.748L127.405 15.792C127.293 15.596 127.097 15.68 127.097 15.904V25.284C127.097 25.48 127.153 25.62 127.377 25.844L127.825 26.264C127.993 26.432 128.133 26.488 128.385 26.488H129.533C129.701 26.488 129.785 26.572 129.785 26.74V27.748C129.785 27.916 129.701 28 129.533 28H123.121ZM144.502 19.264C144.334 19.264 144.25 19.348 144.25 19.516V25.312C144.25 25.508 144.334 25.648 144.53 25.844L145.006 26.292C145.174 26.432 145.286 26.488 145.51 26.488H146.238C146.434 26.488 146.518 26.572 146.518 26.74V27.748C146.518 27.916 146.434 28 146.238 28H139.686C139.518 28 139.434 27.916 139.434 27.748V26.74C139.434 26.572 139.518 26.488 139.686 26.488H140.498C140.722 26.488 140.834 26.432 140.974 26.292L141.478 25.844C141.674 25.676 141.73 25.508 141.73 25.312V11.452C141.73 11.284 141.674 11.116 141.478 10.948L140.974 10.5C140.834 10.36 140.722 10.304 140.498 10.304H139.686C139.518 10.304 139.434 10.22 139.434 10.052V9.044C139.434 8.876 139.518 8.792 139.686 8.792H146.266C146.434 8.792 146.518 8.876 146.518 9.044V10.052C146.518 10.22 146.434 10.304 146.266 10.304H145.51C145.286 10.304 145.202 10.332 145.034 10.472L144.474 10.976C144.278 11.172 144.25 11.284 144.25 11.48V17.276C144.25 17.444 144.334 17.528 144.502 17.528H149.766C149.934 17.528 150.018 17.444 150.018 17.276V11.48C150.018 11.284 149.99 11.172 149.794 10.976L149.234 10.472C149.066 10.332 148.982 10.304 148.646 10.304H148.002C147.834 10.304 147.75 10.22 147.75 10.052V9.044C147.75 8.876 147.834 8.792 148.002 8.792H154.582C154.75 8.792 154.834 8.876 154.834 9.044V10.052C154.834 10.22 154.75 10.304 154.582 10.304H153.77C153.546 10.304 153.434 10.36 153.294 10.5L152.79 10.948C152.594 11.116 152.538 11.284 152.538 11.452V25.312C152.538 25.508 152.594 25.676 152.79 25.844L153.294 26.292C153.434 26.432 153.546 26.488 153.77 26.488H154.582C154.75 26.488 154.834 26.572 154.834 26.74V27.748C154.834 27.916 154.75 28 154.582 28H148.03C147.834 28 147.75 27.916 147.75 27.748V26.74C147.75 26.572 147.834 26.488 148.03 26.488H148.646C148.982 26.488 149.094 26.432 149.262 26.292L149.738 25.844C149.934 25.648 150.018 25.508 150.018 25.312V19.516C150.018 19.348 149.906 19.264 149.738 19.264H144.502ZM163.755 28.28C159.191 28.28 156.307 24.5 156.307 18.536C156.307 12.572 159.471 8.512 164.119 8.512C168.599 8.512 171.539 12.488 171.539 18.312C171.539 24.136 168.403 28.28 163.755 28.28ZM164.119 26.32C166.723 26.32 168.403 23.66 168.403 18.928C168.403 13.804 166.499 10.472 163.727 10.472C161.123 10.472 159.443 13.384 159.443 17.92C159.443 22.764 161.263 26.32 164.119 26.32ZM180.544 28.28C175.981 28.28 173.097 24.5 173.097 18.536C173.097 12.572 176.261 8.512 180.909 8.512C185.389 8.512 188.329 12.488 188.329 18.312C188.329 24.136 185.193 28.28 180.544 28.28ZM180.909 26.32C183.513 26.32 185.193 23.66 185.193 18.928C185.193 13.804 183.289 10.472 180.517 10.472C177.913 10.472 176.233 13.384 176.233 17.92C176.233 22.764 178.053 26.32 180.909 26.32ZM196.69 8.792C201.73 8.792 205.314 12.768 205.314 18.256C205.314 23.716 201.674 28 197.194 28H190.278C190.11 28 190.026 27.916 190.026 27.748V26.74C190.026 26.572 190.11 26.488 190.278 26.488H191.09C191.314 26.488 191.426 26.432 191.566 26.292L192.07 25.844C192.266 25.676 192.322 25.508 192.322 25.312V11.452C192.322 11.284 192.266 11.116 192.07 10.948L191.566 10.5C191.426 10.36 191.314 10.304 191.09 10.304H190.278C190.11 10.304 190.026 10.22 190.026 10.052V9.044C190.026 8.876 190.11 8.792 190.278 8.792H196.69ZM197.138 26.376C200.246 26.376 202.066 23.24 202.066 18.284C202.066 13.328 199.714 10.416 196.774 10.416C196.382 10.416 195.934 10.472 195.626 10.556C195.346 10.64 195.234 10.78 195.234 11.116V25.2C195.234 25.368 195.318 25.536 195.514 25.732L195.99 26.152C196.158 26.32 196.298 26.376 196.55 26.376H197.138Z" fill="black"/>
</svg>
